<?xml version="1.0" encoding="utf-8"?>
<!-- Generator: Adobe Illustrator 27.2.0, SVG Export Plug-In . SVG Version: 6.00 Build 0)  -->
<svg version="1.1" id="Capa_1" xmlns="http://www.w3.org/2000/svg" xmlns:xlink="http://www.w3.org/1999/xlink" x="0px" y="0px"
	 viewBox="0 0 120 120" style="enable-background:new 0 0 120 120;" xml:space="preserve">
<style type="text/css">
	.st0{fill:#5F372E;}
	.st1{fill:#F5B588;}
	.st2{fill:#704238;}
	.st3{fill:#F6BF9B;}
	.st4{fill:#4F230A;}
	.st5{fill:#D58C69;}
	.st6{fill:#A56458;}
	.st7{fill:#8F2F40;}
</style>
<g>
	<g>
		<path class="st0" d="M74,91.8c3,0.5,9.7,1.1,15-2.7c2.6-1.8,5.8-5.3,6.5-11.8c0.8-7.6-1.1-13.7-2.8-19c-1.5-4.8-2.7-8.6-1.8-12.6
			c1.8-8.2,11.1-13.2,11.2-13.3c2.7-1.4,3.7-4.7,2.3-7.4c-1.4-2.7-4.7-3.7-7.4-2.3c-0.6,0.3-13.8,7.4-16.8,20.5
			c-1.6,6.9,0.3,12.7,2,18.3c1.5,4.7,2.9,9.2,2.4,14.6c-0.3,2.9-1.5,3.7-1.9,4c-2.3,1.6-6.6,1-7.5,0.7c-2.9-0.7-5.9,1-6.7,4
			c-0.7,2.9,1,5.9,4,6.7C72.7,91.6,73.2,91.7,74,91.8z"/>
	</g>
	<path class="st0" d="M30.8,27.8c-0.3-0.2-0.7-0.4-1.1-0.6c-3.4-1.4-7,0.5-8.4,3.9c-1.4,3.4,0,7.2,3.4,8.5c1.8,0.7,3.8,0.6,5.4-0.2
		C31.3,37.3,32.5,32.1,30.8,27.8z"/>
	<path class="st1" d="M31.3,29.2c-0.3-0.2-0.5-0.3-0.8-0.4c-3.4-1.4-7.3,0.3-8.7,3.7c-1.4,3.4,0.7,7.1,4.1,8.5c0,0,0,0,0,0
		c1,0.4,2.2,0.3,3.1-0.3c0.4-0.2,0.7-0.5,0.9-0.8C31,38.5,32.3,33.6,31.3,29.2z"/>
	<path class="st2" d="M59.6,115.7L59.6,115.7c3.7,0,6.7-3,6.7-6.7v-7.6H52.9v7.6C52.9,112.7,55.9,115.7,59.6,115.7z"/>
	<path class="st0" d="M44.7,115.7L44.7,115.7c3.7,0,6.7-3,6.7-6.7v-7.6H37.9v7.6C37.9,112.7,40.9,115.7,44.7,115.7z"/>
	<g>
		<path class="st0" d="M21.3,106.6c2.3,0,4.6-1.3,5.6-3.5l14.3-30c1.5-3.1,0.2-6.8-2.9-8.3c-3.1-1.5-6.8-0.2-8.3,2.9l-14.3,30
			c-1.5,3.1-0.2,6.8,2.9,8.3C19.5,106.4,20.4,106.6,21.3,106.6z"/>
	</g>
	<path class="st2" d="M45.6,104.7h14.9c9.9,0,17.9-8,17.9-17.9V32.6c0-14-11.3-25.4-25.4-25.4h0c-14,0-25.4,11.3-25.4,25.4v54.1
		C27.7,96.7,35.7,104.7,45.6,104.7z"/>
	<path class="st3" d="M56.2,45.7H39.1c-5.8,0-10.5-4.7-10.5-10.5v0c0-5.8,4.7-10.5,10.5-10.5h17.1c5.8,0,10.5,4.7,10.5,10.5v0
		C66.7,41,62,45.7,56.2,45.7z"/>
	<path class="st4" d="M58,40.1L58,40.1c1.3,0,2.3-1,2.3-2.3v-2.3c0-1.3-1-2.3-2.3-2.3h0c-1.3,0-2.3,1-2.3,2.3v2.3
		C55.7,39,56.7,40.1,58,40.1z"/>
	<path class="st4" d="M36.6,40.1L36.6,40.1c1.3,0,2.3-1,2.3-2.3v-2.3c0-1.3-1-2.3-2.3-2.3h0c-1.3,0-2.3,1-2.3,2.3v2.3
		C34.3,39,35.3,40.1,36.6,40.1z"/>
	<path class="st3" d="M42,51h8.4c3.5,0,6.4-2.9,6.4-6.4v0c0-3.5-2.9-6.4-6.4-6.4H42c-3.5,0-6.4,2.9-6.4,6.4v0
		C35.6,48.1,38.4,51,42,51z"/>
	<path class="st5" d="M43.8,42.1h3.6c0.9,0,1.6-0.7,1.6-1.6v0c0-0.9-0.7-1.6-1.6-1.6h-3.6c-0.9,0-1.6,0.7-1.6,1.6v0
		C42.2,41.4,42.9,42.1,43.8,42.1z"/>
	<g>
		<path class="st2" d="M86.2,106.8c0.9,0,1.9-0.2,2.8-0.7c3.1-1.5,4.3-5.3,2.8-8.3l-15-30.2c-1.5-3.1-5.3-4.3-8.3-2.8
			c-3.1,1.5-4.3,5.3-2.8,8.3l15,30.2C81.7,105.6,83.9,106.8,86.2,106.8z"/>
	</g>
	<path class="st6" d="M44.7,96.5H48c8.2,0,14.9-6.7,14.9-14.9v-2.8c0-8.2-6.7-14.9-14.9-14.9h-3.4c-8.2,0-14.9,6.7-14.9,14.9v2.8
		C29.7,89.8,36.4,96.5,44.7,96.5z"/>
	<path class="st2" d="M43.4,85.9L41.5,84c-0.2-0.2-0.2-0.5,0-0.7s0.5-0.2,0.7,0l1.9,1.9l1.9-1.9c0.2-0.2,0.5-0.2,0.7,0
		s0.2,0.5,0,0.7l-1.9,1.9l1.9,1.9c0.2,0.2,0.2,0.5,0,0.7c-0.1,0.1-0.2,0.1-0.4,0.1s-0.3,0-0.4-0.1l-1.9-1.9l-1.9,1.9
		c-0.1,0.1-0.2,0.1-0.4,0.1s-0.3,0-0.4-0.1c-0.2-0.2-0.2-0.5,0-0.7L43.4,85.9z"/>
	<path class="st2" d="M40.1,12c0,0-2.4-4.2-5-4.2c0,0,7.3-1.9,10.5,1.4c0,0-0.7-4.3-1.5-4.9c0,0,5.2,1.3,6,4.7
		C50.2,8.9,47.5,15.7,40.1,12z"/>
	<circle class="st7" cx="45.6" cy="46.4" r="2.7"/>
	<path class="st2" d="M71.8,27.8c0.3-0.2,0.7-0.4,1.1-0.6c3.4-1.4,7,0.5,8.4,3.9c1.4,3.4,0,7.2-3.4,8.5c-1.8,0.7-3.8,0.6-5.4-0.2
		C71.3,37.3,70.1,32.1,71.8,27.8z"/>
	<path class="st3" d="M71.3,29.2c0.3-0.2,0.5-0.3,0.8-0.4c3.4-1.4,7.3,0.3,8.7,3.7c1.4,3.4-0.7,7.1-4.1,8.5c0,0,0,0,0,0
		c-1,0.4-2.2,0.3-3.1-0.3c-0.4-0.2-0.7-0.5-0.9-0.8C71.6,38.5,70.3,33.6,71.3,29.2z"/>
</g>
</svg>
