<?xml version="1.0" encoding="utf-8"?>
<!-- Generator: Adobe Illustrator 27.2.0, SVG Export Plug-In . SVG Version: 6.00 Build 0)  -->
<svg version="1.1" id="Capa_1" xmlns="http://www.w3.org/2000/svg" xmlns:xlink="http://www.w3.org/1999/xlink" x="0px" y="0px"
	 viewBox="0 0 120 120" style="enable-background:new 0 0 120 120;" xml:space="preserve">
<style type="text/css">
	.st0{fill:#8F2F40;}
	.st1{fill:#D96D2B;}
	.st2{fill:#3D327D;}
	.st3{fill:#FCF6D3;}
	.st4{fill:#131144;}
	.st5{fill:#EDA83B;}
	.st6{fill:#44449E;}
	.st7{fill:#2C226D;}
</style>
<g>
	<g>
		<path class="st0" d="M40.3,108.5L40.3,108.5c1.8,0,3.2-1.4,3.2-3.2v0c0-1.8-1.4-3.2-3.2-3.2h0c-1.8,0-3.2,1.4-3.2,3.2v0
			C37.1,107.1,38.6,108.5,40.3,108.5z"/>
		<path class="st1" d="M47.5,108.5h7.2v-7.6c0-2-1.6-3.6-3.6-3.6h0c-2,0-3.6,1.6-3.6,3.6V108.5z"/>
		<path class="st1" d="M41.8,108.5L41.8,108.5c1.8,0,3.2-1.4,3.2-3.2v0c0-1.8-1.4-3.2-3.2-3.2h0c-1.8,0-3.2,1.4-3.2,3.2v0
			C38.6,107.1,40,108.5,41.8,108.5z"/>
		<path class="st1" d="M41.8,108.5h12.6c1.3,0,2.4-1.1,2.4-2.4v0c0-1.3-1.1-2.4-2.4-2.4H41.8V108.5z"/>
	</g>
	<g>
		<path class="st2" d="M46.5,101.1l15.2,0.6c13.9,0.5,25.6-10.4,26.1-24.3l2-35.5c0.6-16.2-12-29.7-28.2-30.3l0,0
			c-16.2-0.6-29.7,12-30.3,28.2L29,82.4C28.7,92.4,36.5,100.8,46.5,101.1z"/>
		<g>
			<path class="st3" d="M42.3,54.9l22.3,0.8c5.3,0.2,9.8-4,10-9.3l0.1-2.4c0.2-5.3-4-9.8-9.3-10L43,33.3c-5.3-0.2-9.8,4-10,9.3
				L33,45C32.8,50.3,36.9,54.8,42.3,54.9z"/>
			<path class="st4" d="M61.9,47.5L61.9,47.5c1.5,0.1,2.7-1.1,2.8-2.6l0.1-2.2c0.1-1.5-1.1-2.7-2.6-2.8h0c-1.5-0.1-2.7,1.1-2.8,2.6
				l-0.1,2.2C59.2,46.2,60.4,47.5,61.9,47.5z"/>
			<path class="st4" d="M41.7,46.8L41.7,46.8c1.5,0.1,2.7-1.1,2.8-2.6l0.1-2.2c0.1-1.5-1.1-2.7-2.6-2.8h0c-1.5-0.1-2.7,1.1-2.8,2.6
				L39.1,44C39,45.5,40.2,46.7,41.7,46.8z"/>
			<polygon class="st3" points="68.6,29.8 67.2,34.9 61,34.7 			"/>
			<path class="st1" d="M54.4,46.4l-2.7,7c-0.4,1-1.5,1.7-2.6,1.5h0c-1.1-0.2-1.9-1.1-2-2.3L46.8,45L54.4,46.4z"/>
			<path class="st0" d="M49.5,52.1c0.3,0,0.6-0.2,0.7-0.5l1.8-4.3l-3.3-0.7l0,4.8c0,0.4,0.3,0.7,0.6,0.7L49.5,52.1z"/>
			<path class="st5" d="M45.5,45.8l7.2,1.9c0.9,0.2,1.8-0.3,2.1-1.2v0c0.2-0.9-0.3-1.8-1.2-2.1l-7.2-1.9c-0.9-0.2-1.8,0.3-2.1,1.2v0
				C44,44.6,44.6,45.5,45.5,45.8z"/>
		</g>
		<path class="st3" d="M46.4,97.9L46.4,97.9c-8.7-0.5-15.4-7.9-14.9-16.6l0.5-8.5c0.2-4,3.6-7.1,7.6-6.8l17,0.9
			c4,0.2,7.1,3.6,6.8,7.6L63,83C62.5,91.7,55.1,98.4,46.4,97.9z"/>
		<path class="st6" d="M40.5,91.9l1.6-1.5l-1.5-1.6c-0.3-0.3-0.3-0.8,0-1c0.3-0.3,0.8-0.3,1,0l1.5,1.6l1.6-1.5c0.3-0.3,0.8-0.3,1,0
			c0.3,0.3,0.3,0.8,0,1l-1.6,1.5l1.5,1.6c0.3,0.3,0.3,0.8,0,1c-0.1,0.1-0.3,0.2-0.5,0.2c-0.2,0-0.4-0.1-0.5-0.2l-1.5-1.6L41.6,93
			c-0.1,0.1-0.3,0.2-0.5,0.2c-0.2,0-0.4-0.1-0.5-0.2C40.2,92.7,40.2,92.2,40.5,91.9z"/>
	</g>
	<path class="st7" d="M81.8,104l7.6-0.6c0.9-0.1,1.6-0.8,1.5-1.7l-2.7-32.9c-0.4-5.1-4.8-9-10-8.6h0c-5.1,0.4-9,4.8-8.6,10l2.2,25.2
		C72.3,100.6,76.7,104.4,81.8,104z"/>
	<g>
		<path class="st1" d="M55.5,108.5L55.5,108.5c1.8,0,3.2-1.4,3.2-3.2v0c0-1.8-1.4-3.2-3.2-3.2h0c-1.8,0-3.2,1.4-3.2,3.2v0
			C52.3,107.1,53.7,108.5,55.5,108.5z"/>
		<path class="st5" d="M62.6,108.5h7.2v-7.6c0-2-1.6-3.6-3.6-3.6h0c-2,0-3.6,1.6-3.6,3.6V108.5z"/>
		<path class="st5" d="M57,108.5L57,108.5c1.8,0,3.2-1.4,3.2-3.2v0c0-1.8-1.4-3.2-3.2-3.2h0c-1.8,0-3.2,1.4-3.2,3.2v0
			C53.8,107.1,55.2,108.5,57,108.5z"/>
		<path class="st5" d="M57,108.5h12.6c1.3,0,2.4-1.1,2.4-2.4v0c0-1.3-1.1-2.4-2.4-2.4H57V108.5z"/>
	</g>
</g>
</svg>
