<?xml version="1.0" encoding="utf-8"?>
<!-- Generator: Adobe Illustrator 27.2.0, SVG Export Plug-In . SVG Version: 6.00 Build 0)  -->
<svg version="1.1" id="Capa_1" xmlns="http://www.w3.org/2000/svg" xmlns:xlink="http://www.w3.org/1999/xlink" x="0px" y="0px"
	 viewBox="0 0 120 120" style="enable-background:new 0 0 120 120;" xml:space="preserve">
<style type="text/css">
	.st0{fill:#F97919;}
	.st1{fill:#904F1C;}
	.st2{fill:none;stroke:#904F1C;stroke-width:15;stroke-linecap:round;stroke-linejoin:round;stroke-miterlimit:10;}
	.st3{fill:#F6971E;}
	.st4{fill:#FFFFFF;}
	.st5{fill:#FBAE17;}
	.st6{fill:none;stroke:#FBAE17;stroke-width:43;stroke-linecap:round;stroke-linejoin:round;stroke-miterlimit:10;}
	.st7{fill:#4F230A;}
	.st8{fill:#F15A24;}
	.st9{fill:#47220A;}
	.st10{fill:#FDBE3F;}
	.st11{clip-path:url(#SVGID_00000008845770559087020090000016099598581619950984_);}
	.st12{clip-path:url(#SVGID_00000008845770559087020090000016099598581619950984_);fill:#904F1C;}
</style>
<g>
	<g>
		<g>
			<path class="st0" d="M79.8,84.9c3.2,0,10.1-0.6,15-5.3c2.3-2.3,5-6.5,4.6-13.3c-0.5-8-3.5-13.9-6.2-19.1c-2.4-4.7-4.3-8.3-4-12.7
				c0.5-8.7,9.1-15.5,9.2-15.6c2.5-1.9,3-5.5,1-8c-1.9-2.5-5.5-3-8-1.1c-0.5,0.4-12.9,10-13.7,24.1c-0.4,7.4,2.5,13.1,5.3,18.5
				c2.4,4.6,4.6,9,5,14.6c0.2,3-0.9,4.1-1.2,4.4c-2.1,2-6.6,2.1-7.6,2.1c-3.1-0.3-5.9,2.1-6.2,5.2c-0.3,3.1,2.1,5.9,5.2,6.2
				C78.5,84.8,79,84.9,79.8,84.9z"/>
		</g>
		<path class="st1" d="M86.6,14.4c2.7,2.4,7.1,5,9.6,6.4c-1.7,1.7-4.1,4.5-5.6,8c-4.2-2.3-7.5-5.8-9-7.4
			C83.2,18.6,85,16.2,86.6,14.4z"/>
		<path class="st1" d="M89.3,37.3c0.5,3.1,2,6.1,3.8,9.6c-3.2,1.4-8.3,1.9-11.8,2.1c-1.5-3.2-2.8-6.5-3.4-10.2
			C83.3,39.6,87.2,38.3,89.3,37.3z"/>
		<path class="st1" d="M87.5,70.5c0.3-0.7,0.7-1.8,0.5-3.5c-0.1-2.1-0.5-4.1-1.1-6c4.7,0,8.8-1,11.4-1.8c0.6,2.2,1,4.5,1.1,7
			c0.1,1.5,0,2.8-0.1,4C95.6,70.9,90.2,70.7,87.5,70.5z"/>
	</g>
	<path class="st2" d="M39.8,29"/>
	<path class="st2" d="M33.5,29"/>
	<path class="st2" d="M60.7,29"/>
	<path class="st2" d="M54.4,29"/>
	<path class="st3" d="M45.2,22.7c-0.1-0.5-0.2-1-0.3-1.5c-1.4-4.4-6.1-6.4-10.5-5c-4.4,1.4-6.9,5.7-5.5,10.1
		c0.8,2.4,2.5,4.1,4.6,5.1C36.5,30.8,42.4,27.7,45.2,22.7z"/>
	<path class="st4" d="M44.2,24.3c-0.1-0.4-0.1-0.8-0.3-1.1c-1.4-4.4-6.1-6.8-10.5-5.4c-4.4,1.4-6.3,6.3-4.9,10.7c0,0,0,0,0,0
		c0.4,1.3,1.5,2.3,2.8,2.8c0.5,0.2,1,0.3,1.5,0.3C35.1,31.4,40.8,28.8,44.2,24.3z"/>
	<g>
		<path class="st0" d="M48,111.4c-3.4,0-6.1-2.7-6.1-6.1V90.9c0-3.4,2.7-6.1,6.1-6.1s6.1,2.7,6.1,6.1v14.4
			C54.1,108.6,51.3,111.4,48,111.4z"/>
		<path class="st0" d="M25.5,103.3c-0.9,0-1.8-0.2-2.6-0.6c-3-1.4-4.4-5.1-2.9-8.1l13.7-29.1c1.4-3,5.1-4.3,8.1-2.9
			c3,1.4,4.4,5.1,2.9,8.1L31,99.9C29.9,102.1,27.8,103.3,25.5,103.3z"/>
		<g id="Body_00000075855577943168261500000008849068341304888240_">
			<path class="st5" d="M56.3,101.7c-13.6,0-24.5-11-24.5-24.5V37c0-13.6,11-24.5,24.5-24.5s24.5,11,24.5,24.5v40.2
				C80.9,90.7,69.9,101.7,56.3,101.7z"/>
		</g>
		<g id="Face_00000134961730044656509940000004849351660341377438_">
			<path class="st4" d="M60.4,44.2H42c-5.7,0-10.3-4.6-10.3-10.3v0c0-5.7,4.6-10.3,10.3-10.3h18.4c5.7,0,10.3,4.6,10.3,10.3v0
				C70.7,39.6,66.1,44.2,60.4,44.2z"/>
		</g>
		<path id="Arm_L_00000039119518884742206640000015422840083111333819_" class="st6" d="M88.6,97.2"/>
		<path id="Arm_L_00000065794653552742058140000018209482440593544890_" class="st6" d="M74.8,68.2"/>
		<path class="st5" d="M62.6,111.4c-3.4,0-6.1-2.7-6.1-6.1V90.9c0-3.4,2.7-6.1,6.1-6.1c3.4,0,6.1,2.7,6.1,6.1v14.4
			C68.7,108.6,66,111.4,62.6,111.4z"/>
		<path class="st7" d="M40.2,41.2c-1.1,0-2-0.9-2-2v-2.5c0-1.1,0.9-2,2-2s2,0.9,2,2v2.5C42.2,40.3,41.3,41.2,40.2,41.2z"/>
		<path class="st7" d="M60.9,41.2c-1.1,0-2-0.9-2-2v-2.5c0-1.1,0.9-2,2-2s2,0.9,2,2v2.5C62.9,40.3,62,41.2,60.9,41.2z"/>
		<path class="st4" d="M43.4,49.5H54c2.3,0,4.1-1.8,4.1-4.1v-2.1c0-2.3-1.8-4.1-4.1-4.1H43.4c-2.3,0-4.1,1.8-4.1,4.1v2.1
			C39.3,47.7,41.1,49.5,43.4,49.5z"/>
		<path class="st8" d="M53,49.5c0,0-4.3-0.6-4.3-2.3c0,0-1.4,2.3-4.3,2.3l0,0c0.7,1.6,2.3,2.6,4,2.6H49C50.7,52.1,52.3,51.1,53,49.5
			L53,49.5z"/>
		<path class="st9" d="M47.7,44.5h1.8c1.5,0,2.9-0.7,3.8-1.9l0.2-0.2c0.8-1.1,0-2.6-1.3-2.6h-7c-1.3,0-2.1,1.4-1.4,2.5l0,0
			C44.5,43.6,46,44.5,47.7,44.5z"/>
	</g>
	<path class="st1" d="M42.7,36.9h-6.3c-1.8,0-3.3-1.5-3.3-3.3c0-1.8,1.5-3.3,3.3-3.3h6.3c1.8,0,3.3,1.5,3.3,3.3
		C46,35.4,44.5,36.9,42.7,36.9z"/>
	<path class="st1" d="M64.7,36.9h-6.3c-1.8,0-3.3-1.5-3.3-3.3c0-1.8,1.5-3.3,3.3-3.3h6.3c1.8,0,3.3,1.5,3.3,3.3
		C68,35.4,66.5,36.9,64.7,36.9z"/>
	<path class="st10" d="M65.9,22.1c0.1-0.5,0.2-1.1,0.3-1.6c1.5-4.7,6.4-6.8,11.1-5.3c4.7,1.5,7.3,6.1,5.8,10.7
		c-0.8,2.5-2.6,4.4-4.8,5.4C75.2,30.7,68.9,27.4,65.9,22.1z"/>
	<path class="st4" d="M67,23.8c0.1-0.4,0.2-0.8,0.3-1.2c1.5-4.7,6.5-7.2,11.2-5.7c4.7,1.5,6.7,6.7,5.1,11.3c0,0,0,0,0,0
		c-0.4,1.4-1.6,2.5-2.9,2.9c-0.5,0.2-1.1,0.3-1.6,0.3C76.7,31.3,70.6,28.5,67,23.8z"/>
	<g>
		<defs>
			<path id="SVGID_1_" d="M56.3,101.7c-13.6,0-24.5-11-24.5-24.5V37c0-13.6,11-24.5,24.5-24.5s24.5,11,24.5,24.5v40.2
				C80.9,90.7,69.9,101.7,56.3,101.7z"/>
		</defs>
		<clipPath id="SVGID_00000000945103360996039260000003691789501122336944_">
			<use xlink:href="#SVGID_1_"  style="overflow:visible;"/>
		</clipPath>
		<g style="clip-path:url(#SVGID_00000000945103360996039260000003691789501122336944_);">
			<path class="st1" d="M84.9,52.4h-9c-1.9,0-3.4-1.5-3.4-3.4s1.5-3.4,3.4-3.4h9c1.9,0,3.4,1.5,3.4,3.4S86.8,52.4,84.9,52.4z"/>
			<path class="st1" d="M84.9,60.7h-9c-1.9,0-3.4-1.5-3.4-3.4c0-1.9,1.5-3.4,3.4-3.4h9c1.9,0,3.4,1.5,3.4,3.4
				C88.4,59.2,86.8,60.7,84.9,60.7z"/>
			<path class="st1" d="M84.9,69.4h-9c-1.9,0-3.4-1.5-3.4-3.4s1.5-3.4,3.4-3.4h9c1.9,0,3.4,1.5,3.4,3.4S86.8,69.4,84.9,69.4z"/>
		</g>
		<g style="clip-path:url(#SVGID_00000000945103360996039260000003691789501122336944_);">
			<path class="st1" d="M30.9,52.4h-9c-1.9,0-3.4-1.5-3.4-3.4s1.5-3.4,3.4-3.4h9c1.9,0,3.4,1.5,3.4,3.4S32.9,52.4,30.9,52.4z"/>
			<path class="st1" d="M30.9,60.7h-9c-1.9,0-3.4-1.5-3.4-3.4c0-1.9,1.5-3.4,3.4-3.4h9c1.9,0,3.4,1.5,3.4,3.4
				C34.4,59.2,32.9,60.7,30.9,60.7z"/>
			<path class="st1" d="M30.9,69.4h-9c-1.9,0-3.4-1.5-3.4-3.4s1.5-3.4,3.4-3.4h9c1.9,0,3.4,1.5,3.4,3.4S32.9,69.4,30.9,69.4z"/>
		</g>
		<path style="clip-path:url(#SVGID_00000000945103360996039260000003691789501122336944_);fill:#904F1C;" d="M52.5,17.8L52.5,17.8
			L48.3,17c0.4-2.4,3.2-7.1,11-9c1.1-0.3,2.3,0.4,2.6,1.6c0.3,1.1-0.4,2.3-1.6,2.6C53.4,13.8,52.5,17.6,52.5,17.8z"/>
		<path style="clip-path:url(#SVGID_00000000945103360996039260000003691789501122336944_);fill:#904F1C;" d="M64,17.8L64,17.8
			L59.8,17c0.4-2.4,3.2-7.1,11-9c1.1-0.3,2.3,0.4,2.6,1.6c0.3,1.1-0.4,2.3-1.6,2.6C64.9,13.8,64,17.6,64,17.8z"/>
		<path style="clip-path:url(#SVGID_00000000945103360996039260000003691789501122336944_);fill:#904F1C;" d="M43.9,17.8L43.9,17.8
			L39.7,17c0.4-2.4,3.2-7.1,11-9c1.1-0.3,2.3,0.4,2.6,1.6c0.3,1.1-0.4,2.3-1.6,2.6C44.8,13.8,43.9,17.6,43.9,17.8z"/>
	</g>
	<path id="Belly_00000081637366676426758570000014506083193927894669_" class="st4" d="M48,96.7h0.6c9.2,0,16.7-7.5,16.7-16.7v0
		c0-9.2-7.5-16.7-16.7-16.7H48c-9.2,0-16.7,7.5-16.7,16.7v0C31.4,89.2,38.8,96.7,48,96.7z"/>
	<path class="st5" d="M88.6,103c-2.1,0-4.2-1.2-5.2-3.3L69.7,70.6c-1.3-2.8-0.1-6.2,2.7-7.6c2.8-1.3,6.2-0.1,7.6,2.7l13.7,29.1
		c1.3,2.8,0.1,6.2-2.7,7.6C90.2,102.8,89.4,103,88.6,103z"/>
</g>
</svg>
