<?xml version="1.0" encoding="utf-8"?>
<!-- Generator: Adobe Illustrator 27.2.0, SVG Export Plug-In . SVG Version: 6.00 Build 0)  -->
<svg version="1.1" id="Capa_1" xmlns="http://www.w3.org/2000/svg" xmlns:xlink="http://www.w3.org/1999/xlink" x="0px" y="0px"
	 viewBox="0 0 120 120" style="enable-background:new 0 0 120 120;" xml:space="preserve">
<style type="text/css">
	.st0{fill:#E23039;}
	.st1{fill:#F99D28;}
	.st2{fill:#FDBD10;}
	.st3{fill:#FCD0C0;}
	.st4{fill:#8F2F40;}
	.st5{fill:#FF7466;}
	.st6{fill:#8C0028;}
</style>
<g>
	<path class="st0" d="M86.8,10.2l-18.7,7.7c-1.7,0.7-2.6,2.7-1.8,4.5L74,41.1c1.2,2.8,5.1,2.8,6.3,0l10.9-26.4
		C92.4,11.8,89.6,9,86.8,10.2z"/>
	<path class="st0" d="M31,9.8l19,6.9c1.8,0.6,2.7,2.6,2,4.4l-6.9,19c-1,2.9-5,3-6.3,0.3L26.8,14.4C25.5,11.7,28.2,8.7,31,9.8z"/>
	<path class="st1" d="M52,113.3L52,113.3c2,0,3.6-1.6,3.6-3.6v-18c0-2-1.6-3.6-3.6-3.6h0c-2,0-3.6,1.6-3.6,3.6v18
		C48.4,111.7,50,113.3,52,113.3z"/>
	<path class="st2" d="M67.3,113.3L67.3,113.3c2,0,3.6-1.6,3.6-3.6v-18c0-2-1.6-3.6-3.6-3.6h0c-2,0-3.6,1.6-3.6,3.6v18
		C63.7,111.7,65.3,113.3,67.3,113.3z"/>
	<circle class="st0" cx="45.2" cy="73.6" r="24.1"/>
	<path class="st0" d="M47.4,98.8l15.4,0.6c14.1,0.5,25.9-10.5,26.4-24.6l1.5-37.4C91.3,21,78.5,7.3,62.2,6.7l0,0
		C45.9,6.1,32.1,18.9,31.5,35.2l-1.8,44.5C29.3,89.9,37.3,98.4,47.4,98.8z"/>
	<path class="st3" d="M54.3,38.5c0,6.7-5.4,12.1-12.1,12.1s-12.1-5.4-12.1-12.1s4.7-12.2,11.4-12.2S54.3,31.9,54.3,38.5z"/>
	<path d="M41.5,44L41.5,44c-3-0.4-5.2-3.2-4.8-6.2l0,0c0.4-3,3.2-5.2,6.2-4.8h0c3,0.4,5.2,3.2,4.8,6.2v0
		C47.3,42.2,44.6,44.3,41.5,44z"/>
	<path class="st3" d="M75.5,39.3c0,7.1-5.7,12.8-12.8,12.8s-12.8-5.7-12.8-12.8s5.7-13.3,12.8-13.3S75.5,32.2,75.5,39.3z"/>
	<path class="st1" d="M54.9,42l-2.8,7.1c-0.4,1.1-1.5,1.7-2.6,1.5h0c-1.1-0.2-1.9-1.1-2-2.3l-0.3-7.8L54.9,42z"/>
	<path class="st4" d="M50,47.8c0.3,0,0.6-0.2,0.7-0.5l1.8-4.4l-3.3-0.7l0,4.8c0,0.4,0.3,0.7,0.6,0.7L50,47.8z"/>
	<path class="st2" d="M45.9,41.3l7.2,1.9c0.9,0.2,1.9-0.3,2.1-1.2v0c0.2-0.9-0.3-1.9-1.2-2.1L46.8,38c-0.9-0.2-1.9,0.3-2.1,1.2v0
		C44.4,40.1,45,41.1,45.9,41.3z"/>
	<circle class="st5" cx="45.2" cy="73.6" r="20.1"/>
	<path class="st6" d="M97.1,100.7l-3.9,0.5c-11.2,1.5-21.5-6.4-23-17.6l-2.8-17.9c-1-7.3,4.1-13.9,11.4-14.9h0
		c7.3-1,13.9,4.1,14.9,11.4l5.2,36.1C99.1,99.5,98.3,100.6,97.1,100.7z"/>
	<path class="st6" d="M52.1,33.8c-0.4,0-0.8-0.1-1.2-0.4L33.3,22.1c-1-0.7-1.3-2-0.7-3.1c0.7-1,2-1.3,3.1-0.7l17.6,11.4
		c1,0.7,1.3,2,0.7,3.1C53.5,33.5,52.8,33.8,52.1,33.8z"/>
	<path class="st6" d="M53,33.7c-0.9,0-1.7-0.5-2.1-1.4c-0.4-1.1,0.1-2.4,1.3-2.9l28.6-11c1.1-0.4,2.4,0.1,2.9,1.3
		c0.4,1.1-0.1,2.4-1.3,2.9l-28.6,11C53.5,33.6,53.2,33.7,53,33.7z"/>
	<g>
		<path class="st6" d="M36.4,73.3L36.4,73.3c-0.8,0-1.5-0.7-1.5-1.5V69c0-0.8,0.7-1.5,1.5-1.5l0,0c0.8,0,1.5,0.7,1.5,1.5v2.8
			C37.9,72.6,37.2,73.3,36.4,73.3z"/>
		<path class="st6" d="M42.3,73.3L42.3,73.3c-0.8,0-1.5-0.7-1.5-1.5V69c0-0.8,0.7-1.5,1.5-1.5h0c0.8,0,1.5,0.7,1.5,1.5v2.8
			C43.8,72.6,43.1,73.3,42.3,73.3z"/>
		<path class="st6" d="M48.2,73.3L48.2,73.3c-0.8,0-1.5-0.7-1.5-1.5V69c0-0.8,0.7-1.5,1.5-1.5h0c0.8,0,1.5,0.7,1.5,1.5v2.8
			C49.6,72.6,49,73.3,48.2,73.3z"/>
		<path class="st6" d="M39.3,81.9L39.3,81.9c-0.8,0-1.5-0.7-1.5-1.5v-2.8c0-0.8,0.7-1.5,1.5-1.5h0c0.8,0,1.5,0.7,1.5,1.5v2.8
			C40.8,81.2,40.2,81.9,39.3,81.9z"/>
		<path class="st6" d="M45.2,81.9L45.2,81.9c-0.8,0-1.5-0.7-1.5-1.5v-2.8c0-0.8,0.7-1.5,1.5-1.5h0c0.8,0,1.5,0.7,1.5,1.5v2.8
			C46.7,81.2,46,81.9,45.2,81.9z"/>
	</g>
	<path d="M61.9,44.5L61.9,44.5c-3-0.4-5.2-3.2-4.8-6.2v0c0.4-3,3.2-5.2,6.2-4.8h0c3,0.4,5.2,3.2,4.8,6.2v0
		C67.7,42.8,65,44.9,61.9,44.5z"/>
</g>
</svg>
