<?xml version="1.0" encoding="utf-8"?>
<!-- Generator: Adobe Illustrator 27.2.0, SVG Export Plug-In . SVG Version: 6.00 Build 0)  -->
<svg version="1.1" id="Capa_1" xmlns="http://www.w3.org/2000/svg" xmlns:xlink="http://www.w3.org/1999/xlink" x="0px" y="0px"
	 viewBox="0 0 120 120" style="enable-background:new 0 0 120 120;" xml:space="preserve">
<style type="text/css">
	.st0{fill:#552C7D;}
	.st1{fill:#643AA0;}
	.st2{fill:#7447A8;}
	.st3{fill:#C5C9E6;}
	.st4{fill:#0A0A3A;}
	.st5{fill:#2D1451;}
	.st6{fill:#D3D8ED;}
	.st7{fill:#8F2F40;}
	.st8{fill:#FFFFFF;}
</style>
<g>
	<path class="st0" d="M42.5,62l5.4,0.4c0.6,0,1.1,0.6,1.1,1.2l-2.5,18.3c-0.3,3.6-3.4,6.3-7,6.1l0,0c-3.6-0.3-6.3-3.4-6.1-7L35.5,68
		C35.8,64.4,38.9,61.7,42.5,62z"/>
	<path class="st0" d="M75.2,104.1l23,0c1.2,0,2.2-1,2.2-2.2V88.4c0-3.5-4.2-5.2-6.7-2.8L75.2,104.1z"/>
	<path class="st1" d="M99.9,101.7L85.2,86.9L68,104.1h30.9C100.1,104.1,100.8,102.5,99.9,101.7z"/>
	<path class="st0" d="M76.6,24.6c0,0,14.7,7.4,22.3,19.3c0.7,1.1,0.4,2.7-0.6,3.5c-4.3,3.4-14.9,11-14.9,11S73.5,33.6,76.6,24.6z"/>
	<g>
		<path class="st2" d="M67.5,104.1c11.6,0,20.9,0.2,20.9-11.4l0-42.3c0-19.1-15.5-34.5-34.6-34.5l-6.6,0c-4.1,0-7.5,3.4-7.5,7.5
			l0,6.4L67.5,104.1z"/>
		<path class="st2" d="M52.3,59.1V15.9H29.7c-9.2,0-13.5,11.4-6.6,17.5L52.3,59.1z"/>
		<path class="st3" d="M71.9,98.3V51.9c0-12.2-9.9-22.1-22.1-22.1H39.7l0.1,52.3c0,12.2,9.9,22,22.1,22l4.3,0
			C69.4,104.1,71.9,101.5,71.9,98.3z"/>
		<g>
			<polygon class="st3" points="67.2,30.7 66.1,37.4 61,35 			"/>
		</g>
	</g>
	<path class="st0" d="M82.2,87.9l5.4-0.4c0.6,0,1.1-0.6,1.1-1.2L86.2,68c-0.3-3.6-3.4-6.3-7-6.1l0,0c-3.6,0.3-6.3,3.4-6.1,7
		l2.1,12.9C75.4,85.5,78.6,88.2,82.2,87.9z"/>
	<path class="st4" d="M53.7,27.4L53.7,27.4c0.8,0,1.5-0.7,1.5-1.5v-0.6c0-0.8-0.7-1.5-1.5-1.5h0c-0.8,0-1.5,0.7-1.5,1.5v0.6
		C52.2,26.7,52.9,27.4,53.7,27.4z"/>
	<path class="st4" d="M43.8,27.4L43.8,27.4c0.8,0,1.5-0.7,1.5-1.5v-0.6c0-0.8-0.7-1.5-1.5-1.5h0c-0.8,0-1.5,0.7-1.5,1.5v0.6
		C42.3,26.7,43,27.4,43.8,27.4z"/>
	<path class="st5" d="M74.5,48.8l-2.4,2c-0.2,0.2-0.6,0.2-0.8,0.1l-3.4-2.1c-0.6-0.4-0.3-1.3,0.4-1.3l5.8,0.1
		C74.7,47.5,75,48.3,74.5,48.8z"/>
	<path class="st5" d="M74.9,53.3l-2.4,2c-0.2,0.2-0.6,0.2-0.8,0.1l-3.4-2.1c-0.6-0.4-0.3-1.3,0.4-1.3l5.8,0.1
		C75.2,52,75.5,52.9,74.9,53.3z"/>
	<path class="st5" d="M75.4,57.8l-2.4,2c-0.2,0.2-0.6,0.2-0.8,0.1l-3.4-2.1c-0.6-0.4-0.3-1.3,0.4-1.3l5.8,0.1
		C75.6,56.6,75.9,57.4,75.4,57.8z"/>
	<path class="st6" d="M56.2,65.1H44.1c-2.3,0-4.1,1.8-4.1,4.1l0,13.7c0,0.2,0,0.5,0,0.7c0.3,9.1,8,16.2,17.1,16.2h3.1
		c2.7,0,4.9-2.2,4.9-4.9V74.1C65.1,69.1,61.1,65.1,56.2,65.1z"/>
	<path class="st7" d="M52.2,47.2h-5.8c-2.2,0-4-1.8-4-4v-7.4h12.5c0.8,0,1.5,0.7,1.5,1.5V43C56.4,45.3,54.5,47.2,52.2,47.2z"/>
	<path class="st8" d="M50,39.9L50,39.9c0.4,0,0.7-0.3,0.8-0.6l0.9-3.4h-3.5l0.9,3.4C49.3,39.6,49.6,39.9,50,39.9z"/>
	<path class="st8" d="M46.2,39.9L46.2,39.9c0.4,0,0.7-0.3,0.8-0.6l0.9-3.4h-3.5l0.9,3.4C45.5,39.6,45.8,39.9,46.2,39.9z"/>
	<path class="st3" d="M43,50.9l-3.3-21.1H24.5c-1.9,0-2.8,2.3-1.4,3.6c0,0,0,0,0,0L36,44.7L43,50.9z"/>
</g>
</svg>
